<?xml version="1.0" encoding="UTF-8"?>
<svg version="1.1" xmlns="http://www.w3.org/2000/svg" width="60" height="60">
<path d="M0 0 C4.47755118 1.49251706 8.22222494 3.00247052 12.375 5.125 C13.43460938 5.66382813 14.49421875 6.20265625 15.5859375 6.7578125 C16.38257812 7.16773438 17.17921875 7.57765625 18 8 C18 8.66 18 9.32 18 10 C16.04414675 11.00484204 14.08523763 12.00373805 12.125 13 C11.03445312 13.556875 9.94390625 14.11375 8.8203125 14.6875 C6 16 6 16 4 16 C4 24.25 4 32.5 4 41 C6.97 41.33 9.94 41.66 13 42 C15.5625 43.5625 15.5625 43.5625 17 45 C16.67 45.99 16.34 46.98 16 48 C11.18203071 50.23398885 6.63411611 50.30446235 1.4375 50.25 C0.69564453 50.25773437 -0.04621094 50.26546875 -0.81054688 50.2734375 C-4.93938284 50.25873105 -8.29608412 50.04501919 -12 48 C-12.8125 45.875 -12.8125 45.875 -13 44 C-6.25 41 -6.25 41 -4 41 C-4 42.65 -4 44.3 -4 46 C-2.68 46 -1.36 46 0 46 C0 30.82 0 15.64 0 0 Z " fill="#E93222" transform="translate(23,5)"/>
</svg>
