<?xml version="1.0" standalone="no"?>
<!DOCTYPE svg PUBLIC "-//W3C//DTD SVG 20010904//EN"
 "http://www.w3.org/TR/2001/REC-SVG-20010904/DTD/svg10.dtd">
<svg version="1.0" xmlns="http://www.w3.org/2000/svg"
 width="500.000000pt" height="500.000000pt" viewBox="0 0 500.000000 500.000000"
 preserveAspectRatio="xMidYMid meet">

<g transform="translate(0.000000,500.000000) scale(0.100000,-0.100000)"
fill="#000000" stroke="none">
<path d="M2365 3266 c-283 -65 -507 -280 -586 -562 -32 -113 -33 -297 -1 -408
77 -268 276 -469 547 -553 48 -14 92 -18 215 -18 135 1 163 4 220 24 226 79
393 226 485 424 51 110 68 193 68 327 -1 139 -19 225 -73 337 -96 198 -276
351 -490 418 -75 23 -303 30 -385 11z m387 -69 c219 -71 397 -243 471 -456 25
-71 31 -106 35 -204 3 -71 0 -142 -8 -180 -50 -259 -250 -478 -505 -556 -103
-31 -293 -35 -395 -8 -225 59 -433 251 -505 466 -66 198 -43 439 58 611 17 30
73 96 123 146 77 79 104 99 185 137 126 61 204 78 349 73 88 -3 133 -10 192
-29z"/>
<path d="M2375 3051 c-95 -27 -164 -70 -245 -151 -227 -228 -227 -573 0 -800
122 -122 236 -170 405 -170 166 0 282 48 402 166 229 225 229 581 -1 809 -118
118 -238 166 -407 164 -57 0 -118 -7 -154 -18z m284 -46 c174 -41 326 -186
376 -358 22 -75 22 -219 0 -294 -62 -216 -272 -373 -500 -373 -224 0 -429 149
-496 360 -29 91 -29 231 0 321 82 256 353 406 620 344z"/>
</g>
</svg>
