<?xml version="1.0" standalone="no"?>
<!DOCTYPE svg PUBLIC "-//W3C//DTD SVG 20010904//EN"
 "http://www.w3.org/TR/2001/REC-SVG-20010904/DTD/svg10.dtd">
<svg version="1.0" xmlns="http://www.w3.org/2000/svg"
 width="500.000000pt" height="500.000000pt" viewBox="0 0 500.000000 500.000000"
 preserveAspectRatio="xMidYMid meet">

<g transform="translate(0.000000,500.000000) scale(0.100000,-0.100000)"
fill="#000000" stroke="none">
<path d="M1329 4846 c-181 -74 -274 -254 -234 -451 17 -79 17 -80 -4 -94 -25
-16 -27 -34 -6 -51 13 -10 19 -10 34 4 18 17 21 15 66 -33 195 -208 524 -158
644 99 23 48 26 68 26 155 0 55 -4 114 -8 131 -8 31 -7 32 30 41 38 9 50 27
35 51 -7 10 -17 9 -54 -2 l-46 -13 -29 38 c-43 56 -110 106 -171 129 -77 29
-208 27 -283 -4z m294 -60 c162 -79 234 -282 158 -443 -36 -76 -91 -132 -166
-168 -49 -24 -71 -29 -139 -29 -103 -1 -179 31 -248 105 -160 171 -99 453 118
545 82 34 195 30 277 -10z"/>
<path d="M2211 4769 c-64 -11 -65 -11 -56 -38 6 -20 11 -21 73 -15 77 7 83 11
76 42 -7 24 -11 24 -93 11z"/>
<path d="M2350 4755 l0 -24 150 0 150 0 0 24 0 25 -150 0 -150 0 0 -25z"/>
<path d="M2700 4751 c0 -27 3 -31 29 -31 15 0 49 -3 75 -6 44 -6 46 -6 46 19
0 22 -5 26 -42 32 -24 3 -58 9 -75 12 -31 5 -33 4 -33 -26z"/>
<path d="M2045 4743 c-89 -20 -92 -22 -87 -48 5 -28 11 -29 62 -16 19 5 47 12
63 15 20 5 27 12 27 31 0 26 -15 30 -65 18z"/>
<path d="M2897 4729 c-8 -29 1 -34 75 -49 66 -13 63 -13 72 17 6 19 2 23 -31
32 -94 24 -110 24 -116 0z"/>
<path d="M3091 4687 c-5 -12 -7 -25 -5 -28 2 -4 33 -15 70 -25 56 -15 67 -15
75 -3 14 23 10 36 -13 43 -13 3 -45 12 -71 21 -47 14 -48 14 -56 -8z"/>
<path d="M3278 4624 c-6 -13 -9 -26 -7 -27 2 -2 33 -15 69 -29 l65 -26 12 21
c15 27 12 30 -65 61 l-63 25 -11 -25z"/>
<path d="M3460 4550 c-15 -27 -11 -31 60 -65 52 -25 63 -27 70 -15 17 27 10
35 -55 68 -63 31 -65 31 -75 12z"/>
<path d="M3631 4451 c-9 -16 -2 -24 48 -55 68 -41 70 -42 86 -19 12 16 6 22
-43 55 -65 43 -77 46 -91 19z"/>
<path d="M3801 4348 c-7 -11 -9 -23 -4 -27 102 -84 104 -85 124 -64 20 20 20
20 -33 59 -73 55 -72 55 -87 32z"/>
<path d="M970 4200 c-47 -42 -53 -51 -44 -67 16 -27 26 -23 84 31 50 47 51 49
33 67 -17 17 -20 16 -73 -31z"/>
<path d="M3959 4224 c-15 -14 -11 -20 38 -67 l54 -51 20 20 20 21 -55 46 c-30
26 -56 47 -58 47 -2 0 -11 -7 -19 -16z"/>
<path d="M825 4055 c-46 -53 -47 -56 -29 -70 17 -13 23 -10 69 36 41 40 48 52
39 66 -19 30 -31 25 -79 -32z"/>
<path d="M4105 4090 c-19 -21 -18 -22 33 -73 48 -48 53 -50 68 -35 16 15 15
19 -13 55 -17 21 -40 46 -50 56 -19 16 -21 16 -38 -3z"/>
<path d="M695 3903 c-41 -53 -44 -59 -28 -70 9 -7 20 -13 24 -13 3 0 26 25 49
55 35 46 40 58 30 70 -19 23 -26 19 -75 -42z"/>
<path d="M4235 3946 c-14 -10 -16 -17 -9 -27 78 -103 86 -110 105 -93 18 16
17 18 -13 60 -49 68 -61 77 -83 60z"/>
<path d="M609 3783 c-8 -10 -27 -37 -42 -60 l-27 -42 22 -15 c21 -15 23 -13
60 45 43 67 45 74 22 83 -21 8 -19 9 -35 -11z"/>
<path d="M4355 3786 c-18 -13 -17 -17 21 -75 21 -33 42 -61 45 -61 3 0 13 6
23 13 17 13 16 17 -18 69 -43 68 -48 71 -71 54z"/>
<path d="M479 3568 c-30 -58 -30 -62 -13 -75 10 -7 20 -13 24 -13 3 0 20 29
37 64 23 47 29 66 20 75 -22 22 -37 10 -68 -51z"/>
<path d="M4458 3619 c-16 -9 -15 -15 14 -74 33 -66 41 -72 68 -55 13 8 10 19
-18 75 -33 68 -36 71 -64 54z"/>
<path d="M396 3398 c-32 -76 -32 -84 -4 -91 12 -4 23 -5 23 -4 52 120 56 132
38 144 -9 7 -20 13 -23 13 -4 0 -19 -28 -34 -62z"/>
<path d="M4542 3442 c-9 -6 -6 -23 14 -73 31 -77 28 -72 53 -64 27 8 26 20 -4
89 -24 54 -37 64 -63 48z"/>
<path d="M323 3203 c-15 -49 -17 -70 -9 -75 28 -19 42 -6 62 61 l21 69 -21 6
c-12 3 -24 6 -27 6 -3 0 -15 -30 -26 -67z"/>
<path d="M4628 3263 c-22 -5 -22 -13 1 -88 16 -53 21 -60 41 -57 13 1 25 4 27
6 5 5 -37 135 -45 139 -4 2 -15 2 -24 0z"/>
<path d="M285 3068 c-8 -24 -25 -103 -25 -120 0 -12 8 -18 24 -18 21 0 26 7
39 67 8 38 13 71 10 75 -7 13 -43 9 -48 -4z"/>
<path d="M4677 3073 c-10 -3 -16 -11 -13 -18 2 -7 10 -40 17 -74 11 -60 20
-69 48 -52 12 8 12 19 0 77 -14 68 -20 75 -52 67z"/>
<path d="M244 2877 c-3 -8 -6 -44 -7 -79 -2 -57 0 -63 19 -66 18 -3 22 5 32
70 6 40 10 73 9 74 -1 1 -12 5 -25 8 -15 5 -24 3 -28 -7z"/>
<path d="M4707 2873 c-2 -5 0 -38 6 -75 9 -62 13 -68 34 -68 26 0 28 17 17
104 -6 40 -10 46 -30 46 -12 0 -25 -3 -27 -7z"/>
<path d="M220 2615 c0 -73 1 -75 25 -75 24 0 25 2 25 75 0 73 -1 75 -25 75
-24 0 -25 -2 -25 -75z"/>
<path d="M4748 2683 c-15 -4 -18 -16 -18 -79 0 -72 1 -74 25 -74 24 0 25 2 25
74 0 78 -3 85 -32 79z"/>
<path d="M220 2415 c0 -73 1 -75 25 -75 24 0 25 2 25 75 0 73 -1 75 -25 75
-24 0 -25 -2 -25 -75z"/>
<path d="M4737 2483 c-11 -10 -8 -143 2 -143 5 0 16 -3 25 -6 14 -5 16 5 16
75 0 72 -2 81 -18 81 -10 0 -22 -3 -25 -7z"/>
<path d="M224 2263 c2 -16 8 -49 11 -75 6 -43 9 -48 32 -48 25 0 26 1 19 53
-3 28 -6 62 -6 75 0 18 -6 22 -31 22 -28 0 -30 -2 -25 -27z"/>
<path d="M4717 2238 c-11 -90 -10 -98 17 -98 22 0 26 6 31 48 13 93 12 97 -16
100 -25 3 -26 0 -32 -50z"/>
<path d="M256 2092 c-3 -6 1 -41 10 -79 14 -65 17 -70 40 -65 27 5 28 6 11 87
-10 49 -17 61 -34 63 -12 2 -24 -1 -27 -6z"/>
<path d="M4695 2086 c-2 -6 -9 -37 -15 -70 -10 -48 -9 -60 2 -67 26 -17 37 -8
48 43 6 29 13 62 16 74 4 17 0 22 -21 26 -15 3 -28 1 -30 -6z"/>
<path d="M311 1901 c-13 -8 -12 -18 4 -73 22 -76 24 -78 52 -68 l21 9 -21 70
c-20 70 -28 79 -56 62z"/>
<path d="M4631 1833 c-20 -68 -17 -82 16 -83 11 0 53 109 53 137 0 7 -11 13
-24 13 -21 0 -27 -9 -45 -67z"/>
<path d="M370 1711 c-12 -8 -10 -19 12 -73 25 -62 41 -76 66 -60 10 7 7 23
-14 75 -28 67 -36 75 -64 58z"/>
<path d="M4565 1653 c-25 -63 -26 -68 -9 -80 10 -7 21 -13 24 -13 8 0 64 139
59 144 -2 2 -14 6 -25 10 -19 6 -25 -1 -49 -61z"/>
<path d="M450 1530 c-12 -7 -10 -18 15 -70 34 -71 38 -75 65 -60 19 10 19 12
-12 75 -33 65 -41 72 -68 55z"/>
<path d="M4482 1474 c-18 -37 -32 -67 -30 -69 2 -1 12 -7 24 -13 18 -10 23 -5
53 56 31 62 32 67 15 79 -10 7 -20 13 -24 13 -3 0 -20 -30 -38 -66z"/>
<path d="M545 1357 c-17 -13 -16 -17 20 -75 21 -34 41 -62 45 -62 3 0 14 6 24
13 17 12 15 17 -21 75 -21 33 -41 61 -44 62 -3 0 -13 -6 -24 -13z"/>
<path d="M4387 1308 c-29 -47 -35 -63 -26 -74 6 -8 17 -14 24 -14 12 0 91 118
84 124 -2 2 -13 8 -24 14 -18 9 -25 4 -58 -50z"/>
<path d="M650 1185 c-10 -12 -5 -24 30 -70 23 -30 45 -55 49 -55 3 0 14 7 23
14 16 12 14 17 -25 69 -44 59 -57 66 -77 42z"/>
<path d="M4273 1143 c-32 -43 -39 -60 -31 -70 19 -23 35 -14 79 43 41 54 42
57 24 70 -10 8 -21 14 -24 14 -4 0 -25 -26 -48 -57z"/>
<path d="M777 1033 c-15 -17 -13 -22 33 -73 l48 -55 21 20 21 21 -53 52 c-51
50 -54 52 -70 35z"/>
<path d="M4145 990 c-41 -42 -46 -51 -35 -65 20 -25 35 -18 83 39 35 40 43 56
34 65 -19 19 -31 13 -82 -39z"/>
<path d="M917 892 c-9 -10 -17 -21 -17 -24 0 -3 24 -26 54 -51 51 -44 54 -45
70 -29 14 17 12 22 -37 70 -51 51 -54 52 -70 34z"/>
<path d="M3515 897 c-137 -46 -230 -139 -272 -272 -15 -47 -17 -156 -4 -201
l9 -32 -74 -22 c-68 -20 -74 -24 -68 -43 4 -12 8 -24 11 -27 2 -2 37 7 77 21
l74 25 18 -33 c26 -50 107 -121 172 -151 50 -24 69 -27 162 -27 93 0 112 3
162 27 150 70 235 211 226 377 -7 150 -89 270 -228 335 -51 24 -80 30 -145 33
-48 2 -96 -2 -120 -10z m166 -47 c269 -51 370 -384 175 -574 -74 -72 -124 -91
-236 -91 -112 0 -167 21 -238 92 -189 189 -91 521 169 572 62 12 69 12 130 1z"/>
<path d="M4005 850 c-46 -46 -48 -51 -33 -66 15 -16 21 -13 72 31 60 51 62 55
44 73 -20 20 -31 14 -83 -38z"/>
<path d="M1061 761 c-6 -11 -11 -22 -11 -24 0 -3 25 -24 55 -47 46 -35 58 -40
70 -30 22 18 18 32 -13 54 -15 11 -41 30 -59 44 -31 23 -32 23 -42 3z"/>
<path d="M1220 640 c-14 -27 -15 -26 45 -65 64 -41 66 -41 82 -16 11 17 6 23
-52 60 -61 38 -65 39 -75 21z"/>
<path d="M1382 530 c-11 -18 -7 -22 57 -55 39 -19 72 -31 74 -27 19 36 15 42
-43 72 -70 36 -72 36 -88 10z"/>
<path d="M1561 444 c-12 -27 -9 -30 77 -63 l52 -21 11 21 c14 26 8 31 -68 61
l-61 25 -11 -23z"/>
<path d="M1746 374 c-11 -28 -7 -32 60 -54 68 -23 89 -19 82 15 -2 11 -24 24
-63 36 -73 23 -71 23 -79 3z"/>
<path d="M1935 323 c-12 -33 -3 -40 67 -56 40 -9 73 -15 74 -14 1 1 4 13 6 27
3 22 -2 25 -69 41 -62 14 -73 14 -78 2z"/>
<path d="M2965 316 c-49 -11 -64 -28 -47 -53 12 -18 155 15 147 34 -3 8 -5 19
-5 24 0 12 -32 10 -95 -5z"/>
<path d="M2128 275 c-3 -14 -2 -28 3 -31 12 -7 138 -21 144 -16 3 3 5 15 5 28
0 19 -7 22 -57 28 -32 4 -65 9 -74 12 -12 3 -18 -3 -21 -21z"/>
<path d="M2845 294 c-5 -1 -36 -5 -67 -9 -56 -6 -58 -8 -58 -35 0 -27 3 -29
28 -25 15 2 48 7 75 10 41 5 47 9 47 30 0 25 -8 34 -25 29z"/>
<path d="M2320 245 c0 -25 1 -25 81 -25 78 0 80 1 77 23 -3 20 -9 22 -80 25
-78 3 -78 3 -78 -23z"/>
<path d="M2520 245 c0 -24 2 -25 75 -25 73 0 75 1 75 25 0 24 -2 25 -75 25
-73 0 -75 -1 -75 -25z"/>
</g>
</svg>
