<?xml version="1.0" standalone="no"?>
<!DOCTYPE svg PUBLIC "-//W3C//DTD SVG 20010904//EN"
 "http://www.w3.org/TR/2001/REC-SVG-20010904/DTD/svg10.dtd">
<svg version="1.0" xmlns="http://www.w3.org/2000/svg"
 width="500.000000pt" height="500.000000pt" viewBox="0 0 500.000000 500.000000"
 preserveAspectRatio="xMidYMid meet">

<g transform="translate(0.000000,500.000000) scale(0.100000,-0.100000)"
fill="#000000" stroke="none">
<path d="M2393 3942 c-7 -4 -10 -17 -7 -28 5 -20 12 -21 127 -19 l122 2 3 27
3 26 -118 0 c-65 0 -123 -4 -130 -8z"/>
<path d="M2687 3934 c-4 -4 -7 -15 -7 -25 0 -13 11 -19 43 -24 23 -3 57 -9 75
-12 19 -3 32 -1 32 5 0 6 3 17 6 25 6 16 -8 20 -96 32 -25 4 -48 3 -53 -1z"/>
<path d="M2255 3925 c-5 -2 -22 -6 -37 -9 -19 -4 -28 -13 -28 -26 0 -28 10
-30 83 -17 60 10 67 14 67 34 0 20 -5 23 -37 22 -21 0 -42 -2 -48 -4z"/>
<path d="M2876 3888 c-7 -29 -4 -31 72 -56 l63 -21 8 22 c5 12 7 25 4 29 -3 6
-125 48 -138 48 -1 0 -5 -10 -9 -22z"/>
<path d="M2120 3892 c-112 -36 -131 -50 -112 -79 11 -18 142 25 142 47 0 23
-13 38 -30 32z"/>
<path d="M3065 3819 c-8 -25 -12 -22 60 -54 56 -24 60 -25 72 -9 7 10 13 21
13 25 0 7 -112 59 -128 59 -6 0 -14 -9 -17 -21z"/>
<path d="M1883 3797 c-64 -32 -74 -45 -49 -66 11 -10 27 -6 75 19 65 32 68 37
49 62 -12 15 -19 13 -75 -15z"/>
<path d="M3242 3739 c-7 -10 -12 -20 -12 -22 0 -2 27 -21 61 -42 57 -35 62
-36 77 -21 16 16 15 19 -10 39 -15 12 -45 32 -66 44 -37 21 -38 21 -50 2z"/>
<path d="M1706 3689 c-55 -39 -56 -42 -40 -60 16 -18 18 -17 75 22 52 35 58
42 49 59 -6 11 -14 20 -19 20 -4 0 -34 -18 -65 -41z"/>
<path d="M3400 3625 c-7 -9 -11 -17 -9 -19 2 -2 28 -24 58 -50 l53 -47 16 22
c14 21 13 24 -34 65 -54 47 -65 51 -84 29z"/>
<path d="M1557 3570 c-55 -50 -57 -54 -41 -71 16 -17 19 -16 70 28 30 26 54
50 54 53 0 3 -6 14 -13 24 -12 17 -17 14 -70 -34z"/>
<path d="M3650 3523 c-25 -8 -56 -16 -70 -17 -13 0 -29 -10 -35 -21 -6 -11
-28 -38 -49 -60 -21 -22 -50 -65 -65 -95 -22 -47 -26 -68 -26 -145 0 -77 4
-98 27 -147 76 -163 255 -242 436 -193 58 16 74 26 133 85 89 89 113 149 107
270 -5 103 -30 162 -101 233 -66 67 -142 100 -237 103 -49 2 -91 -2 -120 -13z
m235 -67 c191 -88 234 -341 84 -487 -173 -168 -462 -81 -509 154 -49 245 197
438 425 333z"/>
<path d="M1424 3433 c-20 -27 -42 -53 -46 -60 -6 -8 -2 -16 13 -24 20 -10 26
-8 51 22 55 65 62 78 48 94 -18 22 -24 19 -66 -32z"/>
<path d="M1322 3298 c-6 -13 -22 -41 -36 -64 l-25 -41 23 -11 c22 -10 27 -7
61 49 30 48 34 63 25 74 -18 21 -35 18 -48 -7z"/>
<path d="M1208 3084 c-25 -54 -28 -68 -17 -75 26 -17 41 -4 67 59 22 54 24 65
12 73 -25 15 -30 11 -62 -57z"/>
<path d="M1144 2912 c-8 -32 -18 -65 -20 -74 -4 -11 0 -19 10 -19 9 -1 21 -2
27 -3 12 -1 51 123 43 135 -2 4 -13 9 -24 12 -17 4 -22 -3 -36 -51z"/>
<path d="M3912 2811 c-11 -6 -11 -20 -2 -72 14 -78 15 -78 41 -72 20 5 21 10
15 65 -10 89 -19 101 -54 79z"/>
<path d="M1107 2748 c-3 -13 -9 -47 -13 -75 -6 -52 -6 -53 19 -53 27 0 29 5
43 103 6 45 5 47 -19 47 -17 0 -26 -7 -30 -22z"/>
<path d="M3930 2545 c0 -73 1 -75 25 -75 24 0 25 2 25 75 0 73 -1 75 -25 75
-24 0 -25 -2 -25 -75z"/>
<path d="M1090 2502 l0 -79 25 5 c25 4 26 6 23 76 -3 65 -5 71 -25 74 -22 3
-23 1 -23 -76z"/>
<path d="M3925 2359 c-6 -55 -4 -73 6 -80 31 -20 46 11 48 104 1 43 -1 47 -23
47 -22 0 -24 -5 -31 -71z"/>
<path d="M1094 2328 c11 -81 17 -98 35 -98 9 0 -8 -11 -37 -25 -64 -30 -139
-103 -172 -170 -22 -43 -25 -63 -25 -150 0 -88 3 -106 27 -155 59 -120 165
-190 299 -198 64 -4 90 0 139 17 l60 22 23 -26 22 -27 19 21 c18 20 18 22 1
41 -17 19 -17 21 20 61 20 23 49 67 64 98 22 47 26 70 26 146 0 76 -4 99 -26
145 -63 134 -204 219 -348 208 l-59 -4 -7 45 c-13 95 -15 101 -42 101 -25 0
-25 -1 -19 -52z m275 -169 c105 -46 174 -152 175 -269 0 -93 -17 -141 -73
-202 -63 -69 -127 -101 -211 -106 -269 -16 -425 313 -240 506 93 97 229 124
349 71z"/>
<path d="M3889 2162 c-17 -69 -14 -82 22 -82 11 0 20 20 31 67 9 37 14 71 12
75 -3 5 -15 8 -27 8 -19 0 -24 -10 -38 -68z"/>
<path d="M3850 2027 c-5 -12 -18 -43 -28 -68 l-20 -47 25 -11 c23 -10 25 -8
44 33 10 24 22 57 25 74 5 24 2 30 -16 35 -15 4 -23 0 -30 -16z"/>
<path d="M3746 1808 c-32 -57 -33 -64 -19 -75 9 -7 20 -13 24 -13 4 0 24 28
43 63 33 57 34 63 19 75 -9 6 -20 12 -24 12 -4 0 -23 -28 -43 -62z"/>
<path d="M3640 1644 c-38 -51 -41 -58 -27 -72 20 -19 35 -8 79 55 24 35 27 47
18 58 -19 23 -24 19 -70 -41z"/>
<path d="M3511 1499 c-46 -41 -52 -51 -41 -64 7 -8 18 -15 24 -15 12 0 106 91
106 102 0 4 -8 11 -17 17 -14 7 -30 -2 -72 -40z"/>
<path d="M1516 1501 c-15 -17 -13 -21 33 -64 54 -50 61 -53 79 -35 18 18 16
22 -42 71 -51 44 -54 46 -70 28z"/>
<path d="M3369 1379 c-62 -46 -64 -49 -47 -72 12 -16 18 -14 71 25 59 43 67
57 44 77 -11 8 -26 1 -68 -30z"/>
<path d="M1661 1371 c-10 -18 -5 -25 46 -60 31 -23 60 -41 64 -41 5 0 13 9 19
19 8 17 3 25 -41 56 -67 48 -75 50 -88 26z"/>
<path d="M3203 1274 c-35 -20 -63 -39 -63 -43 0 -4 6 -15 13 -24 11 -15 17
-14 75 19 34 19 62 39 62 43 0 4 -6 15 -12 24 -12 14 -19 13 -75 -19z"/>
<path d="M1826 1264 c-9 -23 -1 -31 64 -64 57 -29 60 -29 70 -11 5 11 10 22
10 25 0 7 -116 66 -129 66 -5 0 -12 -7 -15 -16z"/>
<path d="M3022 1192 c-54 -22 -61 -28 -56 -46 4 -12 8 -23 10 -25 1 -2 34 9
73 24 68 25 70 27 59 51 -13 28 -7 29 -86 -4z"/>
<path d="M2005 1179 c-8 -26 1 -33 73 -56 46 -15 55 -15 63 -3 17 28 9 36 -48
54 -32 10 -63 21 -70 23 -6 2 -14 -5 -18 -18z"/>
<path d="M2865 1143 c-91 -21 -96 -23 -89 -46 3 -12 8 -23 9 -25 1 -2 35 5 74
14 56 12 71 19 67 31 -3 8 -6 19 -6 24 0 9 -20 10 -55 2z"/>
<path d="M2190 1115 c0 -26 3 -28 92 -44 53 -9 58 -7 58 25 0 19 -8 23 -63 33
-86 15 -87 15 -87 -14z"/>
<path d="M2388 1104 c-5 -4 -8 -15 -8 -24 0 -20 37 -30 106 -30 40 0 44 2 44
25 0 20 -5 25 -24 25 -13 0 -43 3 -67 6 -24 3 -47 2 -51 -2z"/>
<path d="M2603 1103 c-17 -3 -23 -11 -23 -30 0 -25 1 -26 53 -19 28 3 62 6 75
6 17 0 22 6 22 25 0 24 -3 25 -52 24 -29 -1 -63 -4 -75 -6z"/>
</g>
</svg>
