<?xml version="1.0" standalone="no"?>
<!DOCTYPE svg PUBLIC "-//W3C//DTD SVG 20010904//EN"
 "http://www.w3.org/TR/2001/REC-SVG-20010904/DTD/svg10.dtd">
<svg version="1.0" xmlns="http://www.w3.org/2000/svg"
 width="500.000000pt" height="500.000000pt" viewBox="0 0 500.000000 500.000000"
 preserveAspectRatio="xMidYMid meet">

<g transform="translate(0.000000,500.000000) scale(0.100000,-0.100000)"
fill="#000000" stroke="none">
<path d="M2395 3951 c-31 -4 -50 -11 -49 -18 4 -46 -3 -44 132 -41 l127 3 0
25 c0 17 -7 26 -25 31 -30 8 -115 8 -185 0z"/>
<path d="M2644 3936 c-14 -37 0 -50 71 -62 39 -6 73 -9 77 -5 4 4 9 17 10 31
3 20 -2 25 -32 31 -93 18 -120 19 -126 5z"/>
<path d="M2205 3927 c-34 -8 -51 -18 -53 -30 -4 -22 15 -47 31 -42 7 2 38 9
70 15 55 11 58 13 55 38 -4 32 -28 36 -103 19z"/>
<path d="M2839 3889 c-15 -28 0 -40 75 -63 57 -18 60 -17 73 0 24 33 13 45
-66 68 -69 20 -68 20 -82 -5z"/>
<path d="M2025 3877 c-61 -23 -75 -40 -53 -69 12 -14 19 -13 81 10 62 23 68
27 65 51 -4 33 -20 35 -93 8z"/>
<path d="M3032 3838 c-26 -26 -12 -46 55 -78 63 -29 68 -30 80 -14 23 31 14
43 -53 74 -78 35 -67 33 -82 18z"/>
<path d="M1855 3806 c-68 -31 -83 -50 -61 -75 17 -18 19 -18 76 11 69 34 75
40 60 68 -13 24 -13 24 -75 -4z"/>
<path d="M3205 3740 c-21 -23 -21 -23 55 -74 54 -35 55 -36 73 -17 11 11 16
24 12 31 -7 11 -109 80 -118 80 -2 0 -12 -9 -22 -20z"/>
<path d="M1672 3695 c-56 -41 -61 -47 -50 -65 17 -26 23 -25 79 11 69 44 77
56 52 80 -19 20 -20 20 -81 -26z"/>
<path d="M3364 3629 c-18 -20 -18 -21 36 -69 58 -52 76 -57 94 -27 9 16 3 26
-42 68 -29 27 -57 49 -61 49 -4 0 -16 -9 -27 -21z"/>
<path d="M1512 3569 c-50 -49 -52 -53 -36 -70 25 -28 35 -24 89 31 41 42 48
53 39 68 -19 29 -37 24 -92 -29z"/>
<path d="M3653 3540 c-23 -5 -51 -14 -63 -20 -11 -6 -30 -10 -41 -8 -26 4
-121 -106 -158 -182 -22 -47 -26 -68 -26 -145 0 -76 4 -99 26 -146 121 -256
456 -294 621 -69 71 96 89 233 46 347 -29 79 -121 172 -198 200 -68 26 -151
35 -207 23z m173 -77 c71 -24 157 -112 178 -183 36 -120 9 -226 -77 -307 -71
-67 -125 -87 -226 -81 -61 4 -88 10 -122 30 -102 60 -152 148 -152 263 0 120
57 210 165 264 72 37 154 41 234 14z"/>
<path d="M1390 3443 c-61 -69 -64 -79 -38 -98 22 -15 25 -14 70 37 53 60 56
68 29 92 -18 16 -20 15 -61 -31z"/>
<path d="M1264 3269 c-28 -47 -35 -66 -27 -78 21 -32 40 -23 77 37 20 33 36
63 36 67 0 9 -31 34 -42 35 -4 0 -23 -28 -44 -61z"/>
<path d="M2355 3276 c-299 -60 -532 -275 -617 -573 -32 -111 -32 -295 0 -406
79 -277 282 -480 559 -559 111 -32 295 -32 406 0 277 79 480 282 559 559 32
111 32 295 0 406 -80 277 -294 490 -567 562 -85 22 -254 28 -340 11z m327 -75
c242 -62 438 -250 513 -491 25 -81 31 -276 11 -370 -56 -263 -283 -490 -546
-546 -94 -20 -288 -14 -370 11 -237 73 -430 274 -491 513 -26 102 -26 262 0
364 39 150 121 278 247 382 75 62 150 101 254 132 101 31 273 33 382 5z"/>
<path d="M2350 3060 c-303 -82 -488 -396 -411 -700 49 -193 197 -351 391 -416
77 -26 263 -26 340 0 341 114 505 495 350 810 -69 139 -198 252 -340 297 -96
31 -235 35 -330 9z m294 -66 c79 -20 137 -54 208 -122 113 -107 158 -212 158
-364 -1 -170 -35 -255 -149 -369 -113 -112 -202 -149 -361 -149 -150 0 -243
36 -345 132 -120 112 -165 214 -165 376 0 157 35 246 138 354 107 112 209 156
366 157 50 1 115 -6 150 -15z"/>
<path d="M1196 3138 c-28 -43 -58 -120 -49 -128 4 -5 17 -10 27 -12 16 -2 27
11 52 62 34 69 34 74 4 90 -16 8 -22 6 -34 -12z"/>
<path d="M1122 2958 c-16 -20 -42 -132 -33 -141 5 -5 19 -7 31 -5 18 2 26 16
42 67 19 62 19 65 2 78 -22 16 -29 16 -42 1z"/>
<path d="M3864 2807 c-2 -7 1 -42 8 -77 13 -65 27 -80 62 -67 13 5 9 62 -9
135 -6 25 -52 32 -61 9z"/>
<path d="M1071 2763 c-5 -11 -11 -46 -13 -78 -3 -59 -2 -60 24 -63 32 -4 37
10 41 98 2 50 0 55 -20 58 -13 2 -26 -4 -32 -15z"/>
<path d="M3894 2617 c-3 -8 -4 -45 -2 -83 3 -61 5 -69 24 -72 37 -5 47 21 38
95 -8 60 -12 68 -32 71 -12 2 -24 -3 -28 -11z"/>
<path d="M1046 2565 c-11 -29 -6 -111 7 -129 7 -10 22 -16 33 -14 17 3 19 12
19 78 0 73 -1 75 -26 78 -17 2 -29 -3 -33 -13z"/>
<path d="M3893 2414 c-3 -9 -7 -44 -7 -78 -1 -58 0 -61 23 -61 20 0 27 7 33
33 5 19 8 53 6 75 -2 35 -7 43 -26 45 -14 2 -25 -3 -29 -14z"/>
<path d="M1061 2376 c-12 -14 -11 -43 5 -127 4 -23 -1 -30 -39 -52 -56 -33
-117 -99 -147 -162 -22 -43 -25 -64 -25 -150 0 -89 3 -106 28 -157 80 -164
268 -245 436 -188 l64 21 23 -22 c39 -36 85 2 49 41 -17 19 -16 21 17 55 120
124 131 328 24 468 -39 51 -125 111 -186 129 -25 7 -75 12 -112 12 l-67 -1 -6
56 c-3 31 -10 63 -14 71 -11 21 -35 24 -50 6z m274 -221 c55 -27 122 -97 147
-153 24 -53 28 -152 10 -218 -15 -51 -79 -126 -140 -161 -65 -39 -186 -45
-259 -13 -155 66 -226 257 -152 406 29 57 105 127 162 148 58 21 179 16 232
-9z"/>
<path d="M3869 2238 c0 -2 -8 -34 -19 -73 -10 -38 -15 -73 -11 -77 3 -4 17 -9
30 -10 22 -3 26 3 42 67 17 65 17 71 2 83 -15 10 -42 17 -44 10z"/>
<path d="M3804 2015 c-7 -19 -21 -51 -29 -70 -14 -35 -14 -36 11 -47 31 -15
38 -8 68 70 24 60 24 62 6 72 -30 16 -40 12 -56 -25z"/>
<path d="M3706 1808 l-35 -63 22 -18 c21 -18 22 -18 43 8 11 15 31 45 42 68
20 39 20 43 5 55 -29 21 -40 14 -77 -50z"/>
<path d="M3605 1654 c-50 -62 -54 -74 -26 -91 23 -15 34 -7 84 63 l37 52 -25
16 c-24 16 -25 15 -70 -40z"/>
<path d="M3470 1505 l-54 -55 21 -22 22 -21 38 33 c21 19 46 44 57 57 17 23
17 25 1 43 -10 11 -21 20 -24 20 -4 0 -31 -25 -61 -55z"/>
<path d="M1470 1501 c-8 -17 -3 -26 36 -63 62 -58 68 -61 89 -37 18 19 18 21
-30 69 -53 53 -78 62 -95 31z"/>
<path d="M3330 1384 c-25 -20 -49 -39 -53 -44 -10 -9 9 -50 24 -50 6 0 37 21
70 46 58 44 60 47 43 65 -23 26 -32 24 -84 -17z"/>
<path d="M1633 1387 c-25 -32 -22 -38 38 -82 63 -46 72 -48 89 -15 9 16 3 25
-42 58 -72 52 -74 53 -85 39z"/>
<path d="M3161 1277 c-61 -36 -67 -45 -48 -71 13 -18 15 -18 58 3 77 39 93 55
80 79 -15 28 -25 27 -90 -11z"/>
<path d="M1790 1271 c-17 -33 -12 -38 57 -71 63 -30 68 -31 80 -14 20 27 13
36 -53 71 -70 38 -70 38 -84 14z"/>
<path d="M2990 1199 c-69 -24 -76 -32 -62 -63 l11 -25 55 19 c90 31 97 36 84
65 -13 29 -16 29 -88 4z"/>
<path d="M1969 1188 c-17 -31 -4 -44 62 -67 67 -22 93 -16 87 21 -2 14 -22 26
-71 42 -67 22 -68 22 -78 4z"/>
<path d="M2805 1143 c-33 -8 -64 -18 -68 -23 -16 -15 3 -50 28 -50 41 0 127
23 132 36 5 14 -14 55 -25 53 -4 -1 -34 -8 -67 -16z"/>
<path d="M2157 1143 c-4 -3 -7 -17 -7 -30 0 -29 28 -41 102 -45 51 -3 53 -2
56 24 3 22 -2 28 -20 33 -120 27 -122 27 -131 18z"/>
<path d="M2595 1111 c-45 -5 -50 -8 -50 -31 0 -23 4 -25 54 -28 82 -5 103 3
99 36 -3 30 -18 34 -103 23z"/>
<path d="M2344 1095 c-13 -32 3 -42 77 -48 80 -7 92 -2 87 34 -3 23 -8 24 -81
27 -62 2 -78 0 -83 -13z"/>
</g>
</svg>
