<?xml version="1.0" standalone="no"?>
<!DOCTYPE svg PUBLIC "-//W3C//DTD SVG 20010904//EN"
 "http://www.w3.org/TR/2001/REC-SVG-20010904/DTD/svg10.dtd">
<svg version="1.0" xmlns="http://www.w3.org/2000/svg"
 width="500.000000pt" height="500.000000pt" viewBox="0 0 500.000000 500.000000"
 preserveAspectRatio="xMidYMid meet">

<g transform="translate(0.000000,500.000000) scale(0.100000,-0.100000)"
fill="#000000" stroke="none">
<path d="M0 2500 l0 -2500 2500 0 2500 0 0 2500 0 2500 -2500 0 -2500 0 0
-2500z m3977 968 l23 -21 0 -1149 c0 -1135 0 -1148 -20 -1168 -20 -20 -33 -20
-1117 -20 -1006 0 -1098 1 -1115 17 -17 15 -18 45 -18 527 0 281 4 516 8 523
18 29 70 33 413 33 l349 0 0 617 0 617 22 23 21 23 706 0 705 0 23 -22z"/>
<path d="M2557 3433 c-4 -3 -7 -280 -7 -615 l0 -608 424 0 c418 0 469 -3 488
-33 4 -7 8 -238 8 -514 l0 -503 240 0 240 0 -2 1138 -3 1137 -691 3 c-380 1
-694 -1 -697 -5z"/>
<path d="M1787 2153 c-4 -3 -7 -228 -7 -500 l0 -493 820 0 820 0 0 285 0 285
-185 0 c-178 0 -185 -1 -185 -20 0 -11 -5 -20 -12 -20 -12 0 -98 48 -98 55 0
4 98 65 105 65 3 0 5 -9 5 -20 0 -19 7 -20 185 -20 l185 0 -2 193 -3 192 -811
3 c-446 1 -814 -1 -817 -5z m223 -328 c0 -22 -4 -25 -35 -25 -31 0 -35 -3 -35
-25 0 -23 3 -25 50 -25 47 0 50 -2 50 -25 0 -23 -3 -25 -50 -25 -49 0 -50 -1
-50 -30 0 -28 3 -30 35 -30 31 0 35 -3 35 -25 0 -24 -2 -25 -65 -25 l-65 0 0
130 0 130 65 0 c63 0 65 -1 65 -25z m160 -57 l55 -81 3 82 c3 79 4 81 27 81
l25 0 0 -130 0 -130 -24 0 c-20 0 -37 18 -85 87 l-61 87 0 -57 c0 -54 -1 -57
-25 -57 l-25 0 0 100 0 100 28 0 c23 -1 36 -14 82 -82z m290 62 c0 -18 -7 -20
-80 -20 -73 0 -80 2 -80 20 0 18 7 20 80 20 73 0 80 -2 80 -20z m140 -5 c0
-22 -4 -25 -35 -25 -30 0 -35 -3 -35 -24 0 -23 4 -25 53 -28 45 -3 52 -6 55
-25 3 -22 0 -23 -52 -23 -56 0 -56 0 -56 -30 0 -28 3 -30 35 -30 31 0 35 -3
35 -25 0 -24 -3 -25 -60 -25 l-60 0 0 130 0 130 60 0 c57 0 60 -1 60 -25z
m207 3 c29 -27 30 -67 2 -102 -22 -28 -21 -38 19 -128 2 -5 -8 -8 -23 -8 -22
0 -30 9 -52 56 -13 30 -30 53 -36 51 -7 -2 -13 -27 -15 -55 -3 -48 -5 -52 -28
-52 -25 0 -25 1 -22 78 l3 77 60 5 c52 4 60 8 60 25 0 17 -8 21 -60 25 -53 4
-60 8 -63 28 -3 21 0 22 64 22 56 0 72 -4 91 -22z m-397 -153 c0 -84 0 -85
-25 -85 -25 0 -25 1 -25 85 0 84 0 85 25 85 25 0 25 -1 25 -85z"/>
</g>
</svg>
