<?xml version="1.0" standalone="no"?>
<!DOCTYPE svg PUBLIC "-//W3C//DTD SVG 20010904//EN"
 "http://www.w3.org/TR/2001/REC-SVG-20010904/DTD/svg10.dtd">
<svg version="1.0" xmlns="http://www.w3.org/2000/svg"
 width="500.000000pt" height="500.000000pt" viewBox="0 0 500.000000 500.000000"
 preserveAspectRatio="xMidYMid meet">

<g transform="translate(0.000000,500.000000) scale(0.100000,-0.100000)"
fill="#000000" stroke="none">
<path d="M0 2500 l0 -2500 2500 0 2500 0 0 2500 0 2500 -2500 0 -2500 0 0
-2500z m4494 744 c8 -20 8 -928 0 -948 -6 -15 -191 -16 -1994 -16 -1803 0
-1988 1 -1994 16 -8 20 -8 928 0 948 6 15 191 16 1994 16 1803 0 1988 -1 1994
-16z"/>
<path d="M530 2770 l0 -460 1970 0 1970 0 0 460 0 460 -1970 0 -1970 0 0 -460z
m1499 105 c28 -14 41 -33 41 -61 0 -19 -47 -18 -58 2 -5 9 -18 14 -33 12 -18
-2 -24 -9 -24 -28 0 -20 7 -26 36 -35 56 -15 79 -41 79 -87 0 -44 -35 -88 -70
-88 -28 0 -27 43 3 63 29 20 14 48 -34 60 -67 16 -99 84 -63 135 28 41 77 52
123 27z m267 -18 c52 -61 8 -147 -75 -147 l-41 0 0 -60 0 -60 -30 0 -30 0 0
90 0 89 68 3 c64 3 67 4 67 28 0 24 -3 25 -67 28 l-68 3 0 31 0 30 76 -4 c69
-3 79 -6 100 -31z m248 -116 c31 -78 56 -144 56 -147 0 -2 -13 -4 -29 -4 -28
0 -31 4 -56 80 -15 44 -28 80 -30 80 -1 0 -15 -36 -31 -80 -26 -75 -29 -80
-56 -80 -26 0 -28 3 -22 23 16 50 106 278 109 275 2 -2 29 -68 59 -147z m334
87 l3 -58 -31 0 c-27 0 -30 3 -30 30 0 27 -3 30 -30 30 -45 0 -80 -39 -80 -88
0 -63 26 -86 102 -92 61 -5 63 -6 66 -34 l4 -29 -71 5 c-42 3 -81 12 -96 22
-78 51 -87 176 -19 238 26 23 81 37 134 35 l45 -2 3 -57z m190 35 c-3 -25 -7
-28 -45 -31 -40 -3 -43 -5 -43 -33 0 -29 0 -29 60 -29 l60 0 0 -30 0 -30 -60
0 c-60 0 -60 0 -60 -29 0 -28 3 -30 43 -33 38 -3 42 -6 45 -31 l3 -28 -73 3
-73 3 -3 134 c-1 74 0 141 2 148 4 9 27 13 76 13 l71 0 -3 -27z"/>
</g>
</svg>
